<svg width="16" height="16" viewBox="0 0 16 16" fill="none" xmlns="http://www.w3.org/2000/svg">
<path d="M14.61 15.3317L13.6364 4.48908C13.6098 4.19298 13.3617 3.96617 13.0644 3.96617H11.0566V3.06064C11.0566 1.373 9.6837 0 7.99614 0C6.30865 0 4.93588 1.373 4.93588 3.06064V3.96617H2.92672C2.62947 3.96617 2.3813 4.19298 2.35473 4.48908L1.3773 15.3743C1.3629 15.535 1.41665 15.6942 1.52546 15.8132C1.63427 15.9322 1.7881 15.9999 1.94929 15.9999H14.0419C14.0424 15.9999 14.043 15.9999 14.0434 15.9999C14.3607 15.9999 14.6177 15.7428 14.6177 15.4256C14.6177 15.3937 14.6151 15.3622 14.61 15.3317ZM6.08445 3.06064C6.08445 2.00633 6.94205 1.14857 7.99621 1.14857C9.05045 1.14857 9.90813 2.00633 9.90813 3.06064V3.96617H6.08445V3.06064ZM2.57748 14.8514L3.45177 5.11475H4.93588V6.14172C4.93588 6.45888 5.19293 6.71601 5.51017 6.71601C5.8274 6.71601 6.08445 6.45888 6.08445 6.14172V5.11475H9.90813V6.14172C9.90813 6.45888 10.1652 6.71601 10.4824 6.71601C10.7997 6.71601 11.0567 6.45888 11.0567 6.14172V5.11475H12.5394L13.4137 14.8514H2.57748Z" fill="#6B7275"/>
</svg>
