<svg width="160" height="58" viewBox="0 0 160 58" fill="none" xmlns="http://www.w3.org/2000/svg">
<rect y="-0.000366211" width="160" height="58" fill="#E15C19"/>
<path d="M51.1016 31.0699C51.1016 30.5699 50.9245 30.1845 50.5703 29.9137C50.2214 29.6429 49.5885 29.3694 48.6719 29.0934C47.7552 28.8173 47.026 28.5101 46.4844 28.1715C45.4479 27.5205 44.9297 26.6715 44.9297 25.6246C44.9297 24.708 45.3021 23.9528 46.0469 23.359C46.7969 22.7653 47.7682 22.4684 48.9609 22.4684C49.7526 22.4684 50.4583 22.6142 51.0781 22.9059C51.6979 23.1976 52.1849 23.6142 52.5391 24.1559C52.8932 24.6923 53.0703 25.2887 53.0703 25.9449H51.1016C51.1016 25.3512 50.9141 24.8877 50.5391 24.5543C50.1693 24.2158 49.638 24.0465 48.9453 24.0465C48.2995 24.0465 47.7969 24.1845 47.4375 24.4606C47.0833 24.7366 46.9062 25.122 46.9062 25.6168C46.9062 26.0335 47.099 26.3824 47.4844 26.6637C47.8698 26.9397 48.5052 27.2106 49.3906 27.4762C50.276 27.7366 50.987 28.0361 51.5234 28.3746C52.0599 28.708 52.4531 29.0934 52.7031 29.5309C52.9531 29.9632 53.0781 30.471 53.0781 31.0543C53.0781 32.0022 52.7135 32.7574 51.9844 33.3199C51.2604 33.8772 50.276 34.1559 49.0312 34.1559C48.2083 34.1559 47.4505 34.0048 46.7578 33.7028C46.0703 33.3955 45.5339 32.9736 45.1484 32.4371C44.7682 31.9007 44.5781 31.2757 44.5781 30.5621H46.5547C46.5547 31.208 46.7682 31.708 47.1953 32.0621C47.6224 32.4163 48.2344 32.5934 49.0312 32.5934C49.7188 32.5934 50.2344 32.4554 50.5781 32.1793C50.9271 31.8981 51.1016 31.5283 51.1016 31.0699ZM59.75 33.1715C59.1927 33.8278 58.401 34.1559 57.375 34.1559C56.4583 34.1559 55.763 33.8877 55.2891 33.3512C54.8203 32.8147 54.5859 32.0387 54.5859 31.0231V25.5465H56.4844V30.9996C56.4844 32.0726 56.9297 32.609 57.8203 32.609C58.7422 32.609 59.3646 32.2783 59.6875 31.6168V25.5465H61.5859V33.9996H59.7969L59.75 33.1715ZM70.9375 29.859C70.9375 31.1715 70.6432 32.2158 70.0547 32.9918C69.4714 33.7679 68.6667 34.1559 67.6406 34.1559C66.651 34.1559 65.8802 33.7991 65.3281 33.0856L65.2344 33.9996H63.5156V21.9996H65.4141V26.359C65.9609 25.7132 66.6979 25.3903 67.625 25.3903C68.6562 25.3903 69.4661 25.7731 70.0547 26.5387C70.6432 27.3043 70.9375 28.3746 70.9375 29.7496V29.859ZM69.0391 29.6949C69.0391 28.7783 68.8776 28.0908 68.5547 27.6324C68.2318 27.1741 67.763 26.9449 67.1484 26.9449C66.3255 26.9449 65.7474 27.3043 65.4141 28.0231V31.5074C65.7526 32.2418 66.3359 32.609 67.1641 32.609C67.7578 32.609 68.2161 32.3877 68.5391 31.9449C68.862 31.5022 69.0286 30.833 69.0391 29.9371V29.6949ZM77.2734 31.7028C77.2734 31.3642 77.1328 31.1064 76.8516 30.9293C76.5755 30.7522 76.1146 30.596 75.4688 30.4606C74.8229 30.3252 74.2839 30.1533 73.8516 29.9449C72.9036 29.4866 72.4297 28.8226 72.4297 27.9528C72.4297 27.2236 72.737 26.6142 73.3516 26.1246C73.9661 25.6351 74.7474 25.3903 75.6953 25.3903C76.7057 25.3903 77.5208 25.6403 78.1406 26.1403C78.7656 26.6403 79.0781 27.2887 79.0781 28.0856H77.1797C77.1797 27.721 77.0443 27.4189 76.7734 27.1793C76.5026 26.9345 76.1432 26.8121 75.6953 26.8121C75.2786 26.8121 74.9375 26.9085 74.6719 27.1012C74.4115 27.2939 74.2812 27.5517 74.2812 27.8746C74.2812 28.1663 74.4036 28.3929 74.6484 28.5543C74.8932 28.7158 75.388 28.8798 76.1328 29.0465C76.8776 29.208 77.4609 29.4033 77.8828 29.6324C78.3099 29.8564 78.625 30.1272 78.8281 30.4449C79.0365 30.7627 79.1406 31.1481 79.1406 31.6012C79.1406 32.3616 78.8255 32.9788 78.1953 33.4528C77.5651 33.9215 76.7396 34.1559 75.7188 34.1559C75.026 34.1559 74.4089 34.0309 73.8672 33.7809C73.3255 33.5309 72.9036 33.1871 72.6016 32.7496C72.2995 32.3121 72.1484 31.8408 72.1484 31.3356H73.9922C74.0182 31.7835 74.1875 32.1298 74.5 32.3746C74.8125 32.6142 75.2266 32.734 75.7422 32.734C76.2422 32.734 76.6224 32.6403 76.8828 32.4528C77.1432 32.2601 77.2734 32.0101 77.2734 31.7028ZM84.2734 32.6403C84.7474 32.6403 85.1406 32.5022 85.4531 32.2262C85.7656 31.9502 85.9323 31.609 85.9531 31.2028H87.7422C87.7214 31.7288 87.5573 32.221 87.25 32.6793C86.9427 33.1324 86.526 33.4918 86 33.7574C85.474 34.0231 84.9062 34.1559 84.2969 34.1559C83.1146 34.1559 82.1771 33.7731 81.4844 33.0074C80.7917 32.2418 80.4453 31.1845 80.4453 29.8356V29.6403C80.4453 28.3538 80.7891 27.3252 81.4766 26.5543C82.1641 25.7783 83.1016 25.3903 84.2891 25.3903C85.2943 25.3903 86.112 25.6845 86.7422 26.2731C87.3776 26.8564 87.7109 27.6246 87.7422 28.5778H85.9531C85.9323 28.0934 85.7656 27.6949 85.4531 27.3824C85.1458 27.0699 84.7526 26.9137 84.2734 26.9137C83.6589 26.9137 83.1849 27.1377 82.8516 27.5856C82.5182 28.0283 82.349 28.7028 82.3438 29.609V29.9137C82.3438 30.8304 82.5078 31.5153 82.8359 31.9684C83.1693 32.4163 83.6484 32.6403 84.2734 32.6403ZM93.6016 27.2809C93.3516 27.2392 93.0938 27.2184 92.8281 27.2184C91.9583 27.2184 91.3724 27.5517 91.0703 28.2184V33.9996H89.1719V25.5465H90.9844L91.0312 26.4918C91.4896 25.7574 92.125 25.3903 92.9375 25.3903C93.2083 25.3903 93.4323 25.4267 93.6094 25.4996L93.6016 27.2809ZM96.8203 33.9996H94.9219V25.5465H96.8203V33.9996ZM94.8047 23.3512C94.8047 23.0595 94.8958 22.8173 95.0781 22.6246C95.2656 22.4319 95.5312 22.3356 95.875 22.3356C96.2188 22.3356 96.4844 22.4319 96.6719 22.6246C96.8594 22.8173 96.9531 23.0595 96.9531 23.3512C96.9531 23.6377 96.8594 23.8772 96.6719 24.0699C96.4844 24.2574 96.2188 24.3512 95.875 24.3512C95.5312 24.3512 95.2656 24.2574 95.0781 24.0699C94.8958 23.8772 94.8047 23.6377 94.8047 23.3512ZM106.312 29.859C106.312 31.1715 106.018 32.2158 105.43 32.9918C104.846 33.7679 104.042 34.1559 103.016 34.1559C102.026 34.1559 101.255 33.7991 100.703 33.0856L100.609 33.9996H98.8906V21.9996H100.789V26.359C101.336 25.7132 102.073 25.3903 103 25.3903C104.031 25.3903 104.841 25.7731 105.43 26.5387C106.018 27.3043 106.312 28.3746 106.312 29.7496V29.859ZM104.414 29.6949C104.414 28.7783 104.253 28.0908 103.93 27.6324C103.607 27.1741 103.138 26.9449 102.523 26.9449C101.701 26.9449 101.122 27.3043 100.789 28.0231V31.5074C101.128 32.2418 101.711 32.609 102.539 32.609C103.133 32.609 103.591 32.3877 103.914 31.9449C104.237 31.5022 104.404 30.833 104.414 29.9371V29.6949ZM111.633 34.1559C110.43 34.1559 109.453 33.7783 108.703 33.0231C107.958 32.2627 107.586 31.2522 107.586 29.9918V29.7574C107.586 28.9137 107.747 28.1611 108.07 27.4996C108.398 26.833 108.857 26.3147 109.445 25.9449C110.034 25.5752 110.69 25.3903 111.414 25.3903C112.565 25.3903 113.453 25.7574 114.078 26.4918C114.708 27.2262 115.023 28.2653 115.023 29.609V30.3746H109.5C109.557 31.0726 109.789 31.6246 110.195 32.0309C110.607 32.4371 111.122 32.6403 111.742 32.6403C112.612 32.6403 113.32 32.2887 113.867 31.5856L114.891 32.5621C114.552 33.0673 114.099 33.4606 113.531 33.7418C112.969 34.0179 112.336 34.1559 111.633 34.1559ZM111.406 26.9137C110.885 26.9137 110.464 27.096 110.141 27.4606C109.823 27.8252 109.62 28.333 109.531 28.984H113.148V28.8434C113.107 28.208 112.938 27.7288 112.641 27.4059C112.344 27.0778 111.932 26.9137 111.406 26.9137Z" fill="white"/>
</svg>
