<svg width="212" height="110" viewBox="0 0 212 110" fill="none" xmlns="http://www.w3.org/2000/svg">
<path d="M109.727 50.2466C109.238 50.8836 108.561 51.366 107.695 51.6938C106.829 52.0216 105.846 52.1855 104.745 52.1855C103.613 52.1855 102.611 51.9289 101.739 51.4155C100.867 50.9022 100.193 50.1693 99.7163 49.2168C99.2463 48.2581 99.002 47.1418 98.9834 45.8677V44.8101C98.9834 42.769 99.472 41.1764 100.449 40.0322C101.426 38.8818 102.79 38.3066 104.541 38.3066C106.043 38.3066 107.237 38.6777 108.122 39.4199C109.006 40.1621 109.538 41.2321 109.717 42.6299H107.417C107.157 41.0033 106.214 40.1899 104.587 40.1899C103.535 40.1899 102.735 40.5703 102.184 41.3311C101.64 42.0856 101.358 43.1958 101.34 44.6616V45.7007C101.34 47.1603 101.646 48.2952 102.258 49.1055C102.877 49.9095 103.733 50.3115 104.828 50.3115C106.028 50.3115 106.882 50.0394 107.389 49.4951V46.8511H104.605V45.0698H109.727V50.2466ZM116.508 52.1855C115.08 52.1855 113.92 51.7371 113.029 50.8403C112.145 49.9373 111.703 48.7375 111.703 47.2407V46.9624C111.703 45.9604 111.894 45.0667 112.278 44.2812C112.667 43.4896 113.212 42.8742 113.911 42.4351C114.61 41.9959 115.389 41.7764 116.249 41.7764C117.615 41.7764 118.67 42.2124 119.412 43.0845C120.16 43.9565 120.535 45.1904 120.535 46.7861V47.6953H113.976C114.044 48.5241 114.319 49.1797 114.801 49.6621C115.29 50.1445 115.902 50.3857 116.638 50.3857C117.671 50.3857 118.512 49.9683 119.162 49.1333L120.377 50.293C119.975 50.8929 119.437 51.3599 118.763 51.6938C118.095 52.0216 117.343 52.1855 116.508 52.1855ZM116.239 43.5854C115.621 43.5854 115.12 43.8019 114.736 44.2349C114.359 44.6678 114.118 45.2708 114.013 46.0439H118.308V45.877C118.259 45.1224 118.058 44.5534 117.705 44.1699C117.353 43.7803 116.864 43.5854 116.239 43.5854ZM125.118 39.522V41.9619H126.89V43.6318H125.118V49.2354C125.118 49.6188 125.192 49.8971 125.34 50.0703C125.495 50.2373 125.767 50.3208 126.157 50.3208C126.417 50.3208 126.679 50.2899 126.945 50.228V51.9722C126.432 52.1144 125.937 52.1855 125.461 52.1855C123.729 52.1855 122.863 51.23 122.863 49.3188V43.6318H121.212V41.9619H122.863V39.522H125.118ZM136.863 48.7715L138.904 41.9619H141.307L137.317 53.5215C136.705 55.21 135.666 56.0542 134.2 56.0542C133.872 56.0542 133.511 55.9985 133.115 55.8872V54.1431L133.542 54.1709C134.111 54.1709 134.537 54.0658 134.822 53.8555C135.112 53.6514 135.341 53.305 135.508 52.8164L135.833 51.9536L132.308 41.9619H134.738L136.863 48.7715ZM142.04 46.8882C142.04 45.9048 142.234 45.0203 142.624 44.2349C143.014 43.4432 143.561 42.8371 144.266 42.4165C144.971 41.9897 145.781 41.7764 146.697 41.7764C148.051 41.7764 149.149 42.2124 149.99 43.0845C150.838 43.9565 151.295 45.1131 151.363 46.5542L151.373 47.083C151.373 48.0726 151.181 48.957 150.797 49.7363C150.42 50.5156 149.876 51.1187 149.165 51.5454C148.459 51.9722 147.643 52.1855 146.715 52.1855C145.299 52.1855 144.164 51.7155 143.311 50.7754C142.463 49.8291 142.04 48.5705 142.04 46.9995V46.8882ZM144.294 47.083C144.294 48.1159 144.507 48.9261 144.934 49.5137C145.361 50.0951 145.955 50.3857 146.715 50.3857C147.476 50.3857 148.067 50.0889 148.487 49.4951C148.914 48.9014 149.127 48.0324 149.127 46.8882C149.127 45.8739 148.908 45.0698 148.469 44.4761C148.036 43.8823 147.445 43.5854 146.697 43.5854C145.961 43.5854 145.376 43.8792 144.943 44.4668C144.51 45.0482 144.294 45.9202 144.294 47.083ZM159.36 51.0166C158.699 51.7959 157.758 52.1855 156.54 52.1855C155.451 52.1855 154.626 51.867 154.063 51.23C153.506 50.5929 153.228 49.6714 153.228 48.4653V41.9619H155.482V48.4375C155.482 49.7116 156.011 50.3486 157.069 50.3486C158.164 50.3486 158.903 49.9559 159.286 49.1704V41.9619H161.541V52H159.416L159.36 51.0166ZM169.092 44.0215C168.795 43.972 168.489 43.9473 168.174 43.9473C167.141 43.9473 166.445 44.3431 166.086 45.1348V52H163.832V41.9619H165.984L166.04 43.0845C166.584 42.2124 167.339 41.7764 168.304 41.7764C168.625 41.7764 168.891 41.8197 169.102 41.9062L169.092 44.0215ZM179.372 50.3857C179.934 50.3857 180.401 50.2218 180.772 49.894C181.144 49.5662 181.341 49.1611 181.366 48.6787H183.491C183.466 49.3034 183.271 49.8879 182.906 50.4321C182.541 50.9702 182.047 51.397 181.422 51.7124C180.797 52.0278 180.123 52.1855 179.399 52.1855C177.995 52.1855 176.882 51.731 176.06 50.8218C175.237 49.9126 174.826 48.6571 174.826 47.0552V46.8232C174.826 45.2956 175.234 44.0741 176.05 43.1587C176.867 42.2371 177.98 41.7764 179.39 41.7764C180.584 41.7764 181.555 42.1258 182.303 42.8247C183.058 43.5174 183.454 44.4297 183.491 45.5615H181.366C181.341 44.9863 181.144 44.5132 180.772 44.1421C180.408 43.771 179.941 43.5854 179.372 43.5854C178.642 43.5854 178.079 43.8514 177.683 44.3833C177.287 44.909 177.086 45.71 177.08 46.7861V47.1479C177.08 48.2365 177.275 49.0498 177.665 49.5879C178.06 50.1198 178.629 50.3857 179.372 50.3857ZM191.191 52C191.092 51.8083 191.005 51.4959 190.931 51.063C190.214 51.8114 189.335 52.1855 188.296 52.1855C187.288 52.1855 186.466 51.8979 185.829 51.3228C185.192 50.7476 184.873 50.0363 184.873 49.189C184.873 48.119 185.269 47.2995 186.061 46.7305C186.858 46.1553 187.996 45.8677 189.475 45.8677H190.857V45.209C190.857 44.6895 190.712 44.2751 190.421 43.9658C190.13 43.6504 189.688 43.4927 189.094 43.4927C188.581 43.4927 188.16 43.6226 187.833 43.8823C187.505 44.1359 187.341 44.4606 187.341 44.8564H185.086C185.086 44.306 185.269 43.7926 185.634 43.3164C185.999 42.834 186.493 42.4567 187.118 42.1846C187.749 41.9124 188.451 41.7764 189.224 41.7764C190.399 41.7764 191.336 42.0732 192.035 42.667C192.734 43.2546 193.093 44.0833 193.111 45.1533V49.6807C193.111 50.5837 193.238 51.3042 193.492 51.8423V52H191.191ZM188.714 50.3765C189.159 50.3765 189.577 50.2682 189.966 50.0518C190.362 49.8353 190.659 49.5446 190.857 49.1797V47.2871H189.642C188.807 47.2871 188.179 47.4325 187.758 47.7231C187.338 48.0138 187.127 48.4251 187.127 48.957C187.127 49.39 187.27 49.7363 187.554 49.9961C187.845 50.2497 188.231 50.3765 188.714 50.3765ZM200.728 44.0215C200.431 43.972 200.125 43.9473 199.81 43.9473C198.777 43.9473 198.081 44.3431 197.722 45.1348V52H195.468V41.9619H197.62L197.676 43.0845C198.22 42.2124 198.975 41.7764 199.939 41.7764C200.261 41.7764 200.527 41.8197 200.737 41.9062L200.728 44.0215ZM201.544 46.9067C201.544 45.3605 201.903 44.1204 202.621 43.1865C203.338 42.2464 204.3 41.7764 205.506 41.7764C206.57 41.7764 207.429 42.1475 208.085 42.8896V37.75H210.339V52H208.298L208.187 50.9609C207.513 51.7773 206.613 52.1855 205.487 52.1855C204.312 52.1855 203.36 51.7124 202.63 50.7661C201.906 49.8198 201.544 48.5334 201.544 46.9067ZM203.799 47.1016C203.799 48.1221 203.994 48.9199 204.383 49.4951C204.779 50.0641 205.339 50.3486 206.062 50.3486C206.984 50.3486 207.658 49.9373 208.085 49.1147V44.8286C207.671 44.0246 207.003 43.6226 206.081 43.6226C205.351 43.6226 204.788 43.9132 204.393 44.4946C203.997 45.0698 203.799 45.9388 203.799 47.1016Z" fill="#222223"/>
<g filter="url(#filter0_d_102_417)">
<rect x="30" y="20" width="50" height="50" fill="#222223"/>
</g>
<path d="M65 45L59.9713 41L59.9713 44.2L45 44.2L45 45.8L59.9713 45.8L59.9713 49L65 45Z" fill="#F3FAFE"/>
<defs>
<filter id="filter0_d_102_417" x="0" y="0" width="110" height="110" filterUnits="userSpaceOnUse" color-interpolation-filters="sRGB">
<feFlood flood-opacity="0" result="BackgroundImageFix"/>
<feColorMatrix in="SourceAlpha" type="matrix" values="0 0 0 0 0 0 0 0 0 0 0 0 0 0 0 0 0 0 127 0" result="hardAlpha"/>
<feOffset dy="10"/>
<feGaussianBlur stdDeviation="15"/>
<feColorMatrix type="matrix" values="0 0 0 0 0.808333 0 0 0 0 0.808333 0 0 0 0 0.808333 0 0 0 0.6 0"/>
<feBlend mode="normal" in2="BackgroundImageFix" result="effect1_dropShadow_102_417"/>
<feBlend mode="normal" in="SourceGraphic" in2="effect1_dropShadow_102_417" result="shape"/>
</filter>
</defs>
</svg>
